<svg display="none" xmlns="http://www.w3.org/2000/svg">
  <symbol id="facebook" viewBox="0 0 9 19">
    <g clip-path="url(#clip0_11534_7037)">
      <path
        d="M6.5 3.35693H9V0.356934H5.6C2.8 0.356934 2 2.05693 2 4.55693V6.35693H0V9.35693H2V18.3569H5V9.35693H8.3L8.9 6.35693H5V4.85693C5 4.05693 5.3 3.35693 6.5 3.35693Z"
        fill="#444444"/>
    </g>
    <defs>
      <clipPath id="clip0_11534_7037">
        <rect width="9" height="18" fill="white" transform="translate(0 0.356934)"/>
      </clipPath>
    </defs>
  </symbol>
  <symbol xmlns="http://www.w3.org/2000/svg" viewBox="0 0 16 16" id="instagram">
    <path d="M8 10C9.10457 10 10 9.10457 10 8C10 6.89543 9.10457 6 8 6C6.89543 6 6 6.89543 6 8C6 9.10457 6.89543 10 8 10Z" fill="#444444"/>
    <path d="M14.7 1.3C13.8 0.4 12.7 0 11.3 0H4.7C1.9 0 0 1.9 0 4.7V11.3C0 12.7 0.4 13.9 1.4 14.7C2.3 15.6 3.4 16 4.7 16H11.3C12.7 16 13.9 15.6 14.7 14.7C15.5 13.8 16 12.7 16 11.3V4.7C16 3.3 15.6 2.1 14.7 1.3ZM8 12.1C5.8 12.1 3.9 10.3 3.9 8C3.9 5.7 5.8 3.9 8 3.9C10.2 3.9 12.1 5.7 12.1 8C12.1 10.3 10.2 12.1 8 12.1ZM12.6 4.7C11.9 4.7 11.3 4.2 11.3 3.4C11.3 2.6 11.8 2.1 12.6 2.1C13.3 2.1 13.9 2.7 13.9 3.4C13.9 4.1 13.3 4.7 12.6 4.7Z"
      fill="#444444"/>
  </symbol>
  <symbol xmlns="http://www.w3.org/2000/svg" viewBox="0 0 15 15" id="twitter">
    <path d="M9.7.16c1.5-.5 2.6.3 3.2 1.1.5-.2 1.1-.4 1.7-.6 0 .8-.5 1.4-.8 1.6.7.2 1.2-.4 1.2-.4-.1.9-.9 1.7-1.4 1.9-.2 6.3-2.8 10.4-8.9 10.3h-.4c-.3 0-3.7-.4-4.3-1.8 2 .2 3.4-.4 4.1-1.1-.8-.3-2.4-.4-2.6-2.8.3.2.5.3 1.1.2-1.1-.8-2.3-1.5-2.2-3.5.3.3.9.5 1.2.4C1 5.26-.2 2.36.8.86c1.6 1.7 3.3 3.4 6.3 3.5.2-2.1 1-3.5 2.6-4.2Z" fill="#444"/>
  </symbol>
</svg>

